HIERARCHY
ROOT Hips
{
	OFFSET	0.00	0.00	0.00
	CHANNELS 6 Xposition Yposition Zposition Zrotation Xrotation Yrotation
	JOINT Spine
	{
		OFFSET	 0.00	0.01	 0.00
		CHANNELS 3 Zrotation Xrotation Yrotation
		JOINT Spine1
		{
			OFFSET	 0.00	 2.45913012437421	 0.00
			CHANNELS 3 Zrotation Xrotation Yrotation
            JOINT Neck
            {
                OFFSET	 0.00	 2.48462964506057	 0.00
                CHANNELS 3 Zrotation Xrotation Yrotation
                JOINT Head
                {
                    OFFSET	 0.00	 0.927524780924562	 0.00
                    CHANNELS 3 Zrotation Xrotation Yrotation
                    End Site 
                    {
                        OFFSET	 0.00	 1.14999962169752	 0.00
                    }
                }
            }
			JOINT LeftShoulder
			{
				OFFSET	 0.00	 2.48462964506057	 0.00
				CHANNELS 3 Zrotation Xrotation Yrotation
				JOINT LeftUpArm
				{
					OFFSET	 0.00	 1.24881979654096	 0.00
					CHANNELS 3 Zrotation Xrotation Yrotation
					JOINT LeftForeArm
					{
						OFFSET	 0.00	2.59758046908119	 0.00
						CHANNELS 3 Zrotation Xrotation Yrotation
						JOINT LeftHand
						{
							OFFSET	 0.00	2.45542024364365	 0.00
							CHANNELS 3 Zrotation Xrotation Yrotation
							JOINT LeftHandThumb 
							{
								OFFSET	 0.00	0.00	 0.00
								CHANNELS 3 Zrotation Xrotation Yrotation
								End Site
								{
									OFFSET	 0.00	0.00	1.00000003353624
								}
							}
							JOINT L_Wrist_End 
							{
								OFFSET	 0.00	0.99999967115358	 0.00
								CHANNELS 3 Zrotation Xrotation Yrotation
								End Site 
								{
									OFFSET	 0.00	 0.00	 0.00
								}
							}
						}
					}
				}
			}
			JOINT RightShoulder
			{
				OFFSET	 0.00	 2.48462964506057	 0.00
				CHANNELS 3 Zrotation Xrotation Yrotation
				JOINT RightUpArm
				{
					OFFSET	 0.00	 1.24881979654096	 0.00
					CHANNELS 3 Zrotation Xrotation Yrotation
					JOINT RightForeArm
					{
						OFFSET	 0.00	2.59758046908119	 0.00
						CHANNELS 3 Zrotation Xrotation Yrotation
						JOINT RightHand
						{
							OFFSET	 0.00	2.45542024364365	 0.00
							CHANNELS 3 Zrotation Xrotation Yrotation
							JOINT RightHandThumb 
							{
								OFFSET	 0.00	0.00	 0.00
								CHANNELS 3 Zrotation Xrotation Yrotation
								End Site
								{
									OFFSET	 0.00	0.00	1.00000003353624
								}
							}
							JOINT R_Wrist_End 
							{
								OFFSET	 0.00	0.99999967115358	 0.00
								CHANNELS 3 Zrotation Xrotation Yrotation
								End Site 
								{
									OFFSET	 0.00	 0.00	 0.00
								}
							}
						}
					}
				}
			}
		}
	}
	JOINT LeftUpLeg
	{
		OFFSET	 1.2719394002717	 0.00	 0.00
		CHANNELS 3 Zrotation Xrotation Yrotation
		JOINT LeftLowLeg
		{
			OFFSET	 0.00	-4.3429100912261	 0.00
			CHANNELS 3 Zrotation Xrotation Yrotation
			JOINT LeftFoot
			{
				OFFSET	 0.00	-4.48767017425826	 0.00
				CHANNELS 3 Zrotation Xrotation Yrotation
				JOINT LeftToeBase
                {
                    OFFSET	 0.00	0.00	 1.51507020887566
                    CHANNELS 3 Zrotation Xrotation Yrotation
                    End Site 
                    {
                        OFFSET	 0.00	0.00	 0.75000010571191
                    }
                }
			}
		}
	}
	JOINT RightUpLeg
	{
		OFFSET	 -1.2719393604653	 0.00	 0.00
		CHANNELS 3 Zrotation Xrotation Yrotation
		JOINT RightLowLeg
		{
			OFFSET	 0.00	-4.3429100912261	 0.00
			CHANNELS 3 Zrotation Xrotation Yrotation
			JOINT RightFoot
			{
				OFFSET	 0.00	-4.48767017425826	 0.00
				CHANNELS 3 Zrotation Xrotation Yrotation
				JOINT RightToeBase
                {
                    OFFSET	 0.00	0.00	 1.51507020887566
                    CHANNELS 3 Zrotation Xrotation Yrotation
                    End Site 
                    {
                        OFFSET	 0.00	0.00	 0.749999965609858
                    }
                }   
			}
		}
	}
}
MOTION 
Frames:	11 
Frame Time: 0.02 
  4.133840026855469 -11.275799560546876 10.630799560546874 -174.682 79.8518 483.009 -6.54447 -16.1684 5.75319 25.7389 37.1367 -25.1051 13.8733 21.5438 -58.2489 64.4165 -39.6805 52.5385 -129.8697 6.22611 21.9842 -17.1514 12.7733 -360.568 0.0 22.6226 0.0 -1.54307 -6.12901 7.17452 0.0 0.0 0.0 0.0 0.0 0.0 110.737 -3.49566 8.11592 46.2892 -7.168 -27.1345 0.0 22.1511 0.0 3.9164 -5.48989 -0.564775 0.0 0.0 0.0 0.0 0.0 0.0 3.37593 -0.92841 31.3308 0.0 -3.03813 0.0 -4.98328 10.51063 14.9018 0.0 -13.26034 0.0 3.11769 -9.31481 5.36169 0.0 13.6618 0.0 22.4628 13.65476 -20.5598 0.0 -22.88864 0.0 
  4.127309875488281 -11.263699951171875 10.626500244140624 -173.486 80.3045 480.29 -6.39868 -16.1701 5.78276 25.4423 36.9896 -25.2389 13.3243 22.0186 -57.6397 64.0356 -39.6433 52.2525 -129.8954 6.369 21.9101 -16.7246 13.166 -361.79 0.0 21.5238 0.0 -0.716765 -6.29069 8.07501 0.0 0.0 0.0 0.0 0.0 0.0 111.0173 -3.4961 8.46074 45.4325 -6.39163 -25.5995 0.0 22.2502 0.0 2.72406 -5.10085 -0.434111 0.0 0.0 0.0 0.0 0.0 0.0 3.24399 -0.226918 32.3556 0.0 -2.96 0.0 -5.27077 10.328421 15.1353 0.0 -12.40883 0.0 2.83357 -8.22348 3.77219 0.0 15.1029 0.0 21.227 12.80797 -21.4096 0.0 -23.006329 0.0 
  4.1114498901367185 -11.255899658203125 10.62199951171875 -170.924 80.8406 476.216 -6.30066 -16.1368 5.76077 25.3753 36.8822 -25.2943 12.5427 22.4333 -56.9902 63.5127 -39.6767 51.7155 -130.1604 6.37214 21.5986 -16.1327 13.5601 -362.84 0.0 20.8415 0.0 -0.0128105 -6.46641 8.65308 0.0 0.0 0.0 0.0 0.0 0.0 111.1234 -3.58487 8.8726 44.697 -5.6092 -23.7704 0.0 22.6191 0.0 1.21366 -4.70184 0.12506 0.0 0.0 0.0 0.0 0.0 0.0 3.08922 0.767667 33.2498 0.0 -2.93661 0.0 -5.60811 10.12211 15.5329 0.0 -11.72917 0.0 2.43384 -6.72885 1.81476 0.0 16.0812 0.0 19.6237 12.55878 -21.9144 0.0 -23.66823 0.0 
  4.095849914550781 -11.248599853515625 10.61780029296875 -168.96 81.3119 472.851 -5.84347 -16.445 6.13894 25.0162 37.1773 -25.687 12.0721 22.4354 -56.5044 62.9235 -39.5035 51.2442 -129.9882 6.23727 20.991 -15.4619 14.1737 -363.494 0.0 20.6537 0.0 0.819524 -6.58466 8.96346 0.0 0.0 0.0 0.0 0.0 0.0 111.5206 -3.64993 9.4145 44.0982 -4.71521 -21.8732 0.0 23.2291 0.0 -0.224783 -4.19866 0.588766 0.0 0.0 0.0 0.0 0.0 0.0 2.89435 1.54697 34.1555 0.0 -2.84668 0.0 -5.9088 9.9795 15.8487 0.0 -11.31293 0.0 1.87699 -5.25754 -0.719085 0.0 16.6637 0.0 18.7151 12.03287 -21.7839 0.0 -23.70118 0.0 
  4.077659912109375 -11.2402001953125 10.615699462890625 -167.346 81.7337 469.876 -5.11252 -17.0139 6.83104 24.4356 37.8001 -26.3501 11.9739 22.1868 -56.2193 62.3898 -39.183 50.9431 -129.6066 5.94944 20.7346 -14.5522 14.9688 -364.753 0.0 21.0076 0.0 1.91101 -6.58693 9.08964 0.0 0.0 0.0 0.0 0.0 0.0 112.1456 -3.49022 9.85261 43.5099 -3.81444 -20.1694 0.0 24.3253 0.0 -1.71108 -3.97117 1.63633 0.0 0.0 0.0 0.0 0.0 0.0 2.72421 2.17764 34.9016 0.0 -2.6357 0.0 -6.22314 9.85034 16.2868 0.0 -11.11279 0.0 1.25982 -3.82674 -3.69602 0.0 16.9353 0.0 18.2601 11.559999 -21.5847 0.0 -23.80804 0.0 
  4.060870056152344 -11.2252001953125 10.613900146484376 -166.873 82.0486 468.065 -4.38229 -17.6207 7.54102 23.8524 38.2533 -26.8211 12.1031 21.9678 -56.1479 61.9729 -38.9302 50.9216 -129.275 5.64969 19.1552 -13.9219 15.3669 -364.347 0.0 21.8316 0.0 3.14171 -6.46357 8.39595 0.0 0.0 0.0 0.0 0.0 0.0 112.6901 -3.22584 10.0311 42.9673 -2.93259 -18.682 0.0 25.6958 0.0 -3.37947 -3.46061 2.70093 0.0 0.0 0.0 0.0 0.0 0.0 2.63615 2.50182 35.7229 0.0 -2.2846 0.0 -6.55478 9.64591 16.6379 0.0 -10.91497 0.0 0.74043 -2.65915 -6.48404 0.0 17.025 0.0 18.331 10.893129 -21.93 0.0 -23.706669 0.0 
  4.040790100097656 -11.203199462890625 10.613800048828125 -166.499 82.3279 466.342 -3.89333 -18.2027 8.03685 23.6316 38.6377 -27.0928 12.0923 21.6756 -56.0555 61.4692 -38.7159 50.8193 -128.9406 5.57756 18.7193 -13.3734 15.8033 -365.193 0.0 23.082 0.0 4.58829 -6.19742 7.21468 0.0 0.0 0.0 0.0 0.0 0.0 112.9441 -2.92113 10.0418 42.3966 -2.02376 -17.798 0.0 27.3411 0.0 -5.0811 -2.71381 4.41934 0.0 0.0 0.0 0.0 0.0 0.0 2.64159 2.78096 36.3872 0.0 -1.87103 0.0 -6.99268 9.43908 17.0682 0.0 -10.81855 0.0 0.407425 -1.35029 -8.64403 0.0 16.4494 0.0 18.6989 10.294661 -22.9976 0.0 -23.7945 0.0 
  4.017820129394531 -11.174599609375 10.613199462890625 -165.14 82.582 463.688 -3.88139 -18.6041 8.10044 24.0047 38.4989 -26.598 11.8589 22.1015 -56.1321 60.9081 -38.9496 50.3741 -128.0961 7.35488 20.2111 -14.471 14.9714 -368.683 0.0 24.9867 0.0 5.81873 -5.89304 7.62409 0.0 0.0 0.0 0.0 0.0 0.0 112.3676 -2.73256 9.84764 42.136 -1.49279 -16.8533 0.0 29.4699 0.0 -6.90837 -3.02235 5.73675 0.0 0.0 0.0 0.0 0.0 0.0 2.68577 3.20334 37.2037 0.0 -1.5965 0.0 -7.35601 9.32668 17.3673 0.0 -10.77408 0.0 0.183563 -0.273473 -11.0793 0.0 16.1957 0.0 18.0531 10.26353 -24.2603 0.0 -23.833889 0.0 
  4.000469970703125 -11.1331005859375 10.61260009765625 -166.8 82.7453 464.053 -3.86539 -18.9933 8.09901 24.2311 38.327 -26.2922 11.7278 21.9066 -56.107 60.4562 -38.9132 50.2747 -129.0013 6.77415 20.0863 -12.5128 15.642 -368.747 0.0 26.6347 0.0 5.83913 -5.91464 7.28154 0.0 0.0 0.0 0.0 0.0 0.0 112.2716 -2.73968 9.96461 41.4846 -0.471286 -16.8171 0.0 31.4115 0.0 -8.44556 -2.37076 6.07757 0.0 0.0 0.0 0.0 0.0 0.0 2.80886 3.13244 37.8579 0.0 -1.21425 0.0 -7.82043 9.16482 17.7218 0.0 -10.744801 0.0 0.130237 0.290613 -12.3533 0.0 15.7946 0.0 17.34 10.41453 -25.9243 0.0 -23.7852 0.0 
  3.9760501098632814 -11.081700439453124 10.609300537109375 -167.986 82.9142 463.808 -3.93985 -19.3964 8.18121 24.3614 38.0025 -25.6432 11.7998 22.3552 -56.1815 59.9836 -38.979 50.0181 -128.43939 7.42747 19.8723 -13.1405 15.2944 -369.448 0.0 28.6411 0.0 6.7092 -5.60286 7.57062 0.0 0.0 0.0 0.0 0.0 0.0 111.9739 -2.63184 9.78768 40.904 0.326657 -17.0927 0.0 33.52 0.0 -9.87716 -1.90464 6.25085 0.0 0.0 0.0 0.0 0.0 0.0 2.89762 3.27434 38.8403 0.0 -1.13329 0.0 -8.19369 9.13715 18.0111 0.0 -10.70179 0.0 0.23481 0.699035 -12.6572 0.0 15.5451 0.0 16.6835 10.791491 -27.3989 0.0 -23.92943 0.0 
  3.957019958496094 -11.025799560546876 10.60489990234375 -170.555 83.1021 465.188 -4.58626 -19.2444 7.32104 24.905 36.681 -24.6128 11.0347 23.4878 -55.7859 60.253 -39.5515 50.0433 -132.4782 5.51338 28.7905 -4.92798 17.0383 -376.824 0.0 29.9829 0.0 5.85042 -5.59939 6.7508 0.0 0.0 0.0 0.0 0.0 0.0 111.362 -2.72754 9.32985 40.0638 1.40192 -17.3731 0.0 35.574 0.0 -10.8823 -1.27574 5.35474 0.0 0.0 0.0 0.0 0.0 0.0 2.9798 3.17771 39.4721 0.0 -0.990347 0.0 -8.66843 9.09682 18.3067 0.0 -10.68172 0.0 0.342776 0.778915 -12.4509 0.0 15.4312 0.0 16.3892 11.5326805 -28.301 0.0 -24.24085 0.0 
